#N canvas 599 324 838 904 10;
#X obj 118 277 osc~;
#X obj 119 368 dac~;
#X obj 119 254 line~;
#X obj 200 112 bng 15 250 50 0 empty empty empty 17 7 0 10 -262144
-1 -1;
#X floatatom 82 391 4 0 0 0 - - -;
#X obj 82 368 env~;
#X obj 200 276 line~;
#X obj 118 331 *~;
#X obj 238 193 delay 10;
#X msg 200 193 1 10;
#X msg 238 230 0 100;
#X text 203 176 |---attack---;
#X text 229 214 |release;
#X obj 200 92 r trigger @hv_event;
#X obj 119 73 r frequency @hv_param 1000 6000 3000;
#X msg 119 230 \$1 \, 0 100;
#X floatatom 119 206 4 1000 6000 0 - - -;
#X obj 65 146 loadbang;
#X msg 65 165 3000;
#X connect 0 0 7 0;
#X connect 2 0 0 0;
#X connect 3 0 9 0;
#X connect 3 0 8 0;
#X connect 3 0 16 0;
#X connect 5 0 4 0;
#X connect 6 0 7 1;
#X connect 7 0 1 0;
#X connect 7 0 1 1;
#X connect 7 0 5 0;
#X connect 8 0 10 0;
#X connect 9 0 6 0;
#X connect 10 0 6 0;
#X connect 13 0 3 0;
#X connect 14 0 16 0;
#X connect 15 0 2 0;
#X connect 16 0 15 0;
#X connect 17 0 18 0;
#X connect 18 0 16 0;
